<mxfile host="65bd71144e">
    <diagram id="VyfnaPmFRD0aXaNo3N6c" name="Page-1">
        <mxGraphModel dx="1272" dy="175" grid="1" gridSize="10" guides="1" tooltips="1" connect="1" arrows="1" fold="1" page="0" pageScale="1" pageWidth="850" pageHeight="1100" background="none" math="0" shadow="0">
            <root>
                <mxCell id="0"/>
                <mxCell id="1" parent="0"/>
                <mxCell id="2" value="React Components Tree" style="swimlane;startSize=20;horizontal=1;childLayout=treeLayout;horizontalTree=0;resizable=0;containerType=tree;" parent="1" vertex="1">
                    <mxGeometry x="170" y="470" width="1508" height="910" as="geometry"/>
                </mxCell>
                <mxCell id="3" value="&lt;b&gt;&lt;font style=&quot;font-size: 14px&quot;&gt;ReduxProvider&lt;/font&gt;&lt;/b&gt;" style="whiteSpace=wrap;html=1;" parent="2" vertex="1">
                    <mxGeometry x="1025.88" y="40" width="110" height="40" as="geometry"/>
                </mxCell>
                <mxCell id="13" value="" style="edgeStyle=none;html=1;" parent="2" source="3" target="14" edge="1">
                    <mxGeometry relative="1" as="geometry"/>
                </mxCell>
                <mxCell id="14" value="&lt;span style=&quot;font-size: 14px&quot;&gt;&lt;b&gt;App&lt;/b&gt;&lt;/span&gt;" style="whiteSpace=wrap;html=1;" parent="2" vertex="1">
                    <mxGeometry x="1030.88" y="130" width="100" height="40" as="geometry"/>
                </mxCell>
                <mxCell id="21" value="" style="edgeStyle=none;html=1;" parent="2" source="14" target="22" edge="1">
                    <mxGeometry relative="1" as="geometry">
                        <mxPoint x="-10456" y="640" as="sourcePoint"/>
                    </mxGeometry>
                </mxCell>
                <mxCell id="22" value="&lt;span style=&quot;font-size: 14px&quot;&gt;&lt;b&gt;Router&lt;/b&gt;&lt;/span&gt;" style="whiteSpace=wrap;html=1;" parent="2" vertex="1">
                    <mxGeometry x="1030.88" y="220" width="100" height="40" as="geometry"/>
                </mxCell>
                <mxCell id="23" value="" style="edgeStyle=none;html=1;" parent="2" source="22" target="24" edge="1">
                    <mxGeometry relative="1" as="geometry">
                        <mxPoint x="-10386" y="640" as="sourcePoint"/>
                    </mxGeometry>
                </mxCell>
                <mxCell id="24" value="&lt;span style=&quot;font-size: 14px&quot;&gt;&lt;b&gt;HelmetProvider&lt;/b&gt;&lt;/span&gt;" style="whiteSpace=wrap;html=1;" parent="2" vertex="1">
                    <mxGeometry x="950.88" y="310" width="110" height="40" as="geometry"/>
                </mxCell>
                <mxCell id="27" value="" style="edgeStyle=none;html=1;" parent="2" source="22" target="28" edge="1">
                    <mxGeometry relative="1" as="geometry">
                        <mxPoint x="-10309" y="730" as="sourcePoint"/>
                    </mxGeometry>
                </mxCell>
                <mxCell id="28" value="&lt;span style=&quot;font-size: 14px&quot;&gt;&lt;b&gt;ToastContainer&lt;/b&gt;&lt;/span&gt;" style="whiteSpace=wrap;html=1;" parent="2" vertex="1">
                    <mxGeometry x="1100.88" y="310" width="110" height="40" as="geometry"/>
                </mxCell>
                <mxCell id="29" value="" style="edgeStyle=none;html=1;" parent="2" source="24" target="30" edge="1">
                    <mxGeometry relative="1" as="geometry">
                        <mxPoint x="-10245.666666666666" y="730" as="sourcePoint"/>
                    </mxGeometry>
                </mxCell>
                <mxCell id="30" value="&lt;span style=&quot;font-size: 14px&quot;&gt;&lt;b&gt;Routes&lt;br&gt;&lt;/b&gt;&lt;/span&gt;" style="whiteSpace=wrap;html=1;" parent="2" vertex="1">
                    <mxGeometry x="950.88" y="400" width="110" height="40" as="geometry"/>
                </mxCell>
                <mxCell id="33" value="" style="edgeStyle=none;html=1;" parent="2" source="30" target="34" edge="1">
                    <mxGeometry relative="1" as="geometry">
                        <mxPoint x="-10299" y="820" as="sourcePoint"/>
                    </mxGeometry>
                </mxCell>
                <mxCell id="34" value="&lt;span style=&quot;font-size: 14px&quot;&gt;&lt;b&gt;MainLayout&lt;br&gt;&lt;/b&gt;&lt;/span&gt;" style="whiteSpace=wrap;html=1;" parent="2" vertex="1">
                    <mxGeometry x="950.88" y="490" width="110" height="40" as="geometry"/>
                </mxCell>
                <mxCell id="44" value="" style="edgeStyle=none;html=1;" parent="2" source="34" target="45" edge="1">
                    <mxGeometry relative="1" as="geometry">
                        <mxPoint x="-10299" y="910" as="sourcePoint"/>
                    </mxGeometry>
                </mxCell>
                <mxCell id="45" value="&lt;span style=&quot;font-size: 14px&quot;&gt;&lt;b&gt;SideNav&lt;br&gt;&lt;/b&gt;&lt;/span&gt;" style="whiteSpace=wrap;html=1;" parent="2" vertex="1">
                    <mxGeometry x="524.2" y="580" width="110" height="40" as="geometry"/>
                </mxCell>
                <mxCell id="46" value="" style="edgeStyle=none;html=1;" parent="2" source="34" target="47" edge="1">
                    <mxGeometry relative="1" as="geometry">
                        <mxPoint x="-10299" y="1000" as="sourcePoint"/>
                    </mxGeometry>
                </mxCell>
                <mxCell id="47" value="&lt;span style=&quot;font-size: 14px&quot;&gt;&lt;b&gt;Header&lt;br&gt;&lt;/b&gt;&lt;/span&gt;" style="whiteSpace=wrap;html=1;" parent="2" vertex="1">
                    <mxGeometry x="1077.56" y="580" width="110" height="40" as="geometry"/>
                </mxCell>
                <mxCell id="48" value="" style="edgeStyle=none;html=1;" parent="2" source="34" target="49" edge="1">
                    <mxGeometry relative="1" as="geometry">
                        <mxPoint x="-10149" y="910" as="sourcePoint"/>
                    </mxGeometry>
                </mxCell>
                <mxCell id="49" value="&lt;span style=&quot;font-size: 14px&quot;&gt;&lt;b&gt;Home&lt;br&gt;&lt;/b&gt;&lt;/span&gt;" style="whiteSpace=wrap;html=1;" parent="2" vertex="1">
                    <mxGeometry x="1227.56" y="580" width="110" height="40" as="geometry"/>
                </mxCell>
                <mxCell id="66" value="" style="edgeStyle=none;html=1;" parent="2" source="34" target="67" edge="1">
                    <mxGeometry relative="1" as="geometry">
                        <mxPoint x="-5414.000000000001" y="910" as="sourcePoint"/>
                    </mxGeometry>
                </mxCell>
                <mxCell id="67" value="&lt;span style=&quot;font-size: 14px&quot;&gt;&lt;b&gt;Footer&lt;br&gt;&lt;/b&gt;&lt;/span&gt;" style="whiteSpace=wrap;html=1;" parent="2" vertex="1">
                    <mxGeometry x="1377.56" y="580" width="110" height="40" as="geometry"/>
                </mxCell>
                <mxCell id="69" value="" style="edgeStyle=none;html=1;" parent="2" source="45" target="70" edge="1">
                    <mxGeometry relative="1" as="geometry">
                        <mxPoint x="-5164.000000000001" y="1000" as="sourcePoint"/>
                    </mxGeometry>
                </mxCell>
                <mxCell id="70" value="&lt;span style=&quot;font-size: 14px&quot;&gt;&lt;b&gt;MyRequests&lt;br&gt;&lt;/b&gt;&lt;/span&gt;" style="whiteSpace=wrap;html=1;" parent="2" vertex="1">
                    <mxGeometry x="20" y="670" width="110" height="40" as="geometry"/>
                </mxCell>
                <mxCell id="71" value="" style="edgeStyle=none;html=1;" parent="2" source="45" target="72" edge="1">
                    <mxGeometry relative="1" as="geometry">
                        <mxPoint x="-5164.000000000001" y="1000" as="sourcePoint"/>
                    </mxGeometry>
                </mxCell>
                <mxCell id="72" value="&lt;span style=&quot;font-size: 14px&quot;&gt;&lt;b&gt;NewPSA&lt;br&gt;&lt;/b&gt;&lt;/span&gt;" style="whiteSpace=wrap;html=1;" parent="2" vertex="1">
                    <mxGeometry x="439.2" y="670" width="110" height="40" as="geometry"/>
                </mxCell>
                <mxCell id="79" value="" style="edgeStyle=none;html=1;" parent="2" source="45" target="80" edge="1">
                    <mxGeometry relative="1" as="geometry">
                        <mxPoint x="-4467.333333333334" y="1090" as="sourcePoint"/>
                    </mxGeometry>
                </mxCell>
                <mxCell id="80" value="&lt;span style=&quot;font-size: 14px&quot;&gt;&lt;b&gt;ActiveRequests&lt;br&gt;&lt;/b&gt;&lt;/span&gt;" style="whiteSpace=wrap;html=1;" parent="2" vertex="1">
                    <mxGeometry x="858.4" y="670" width="120" height="40" as="geometry"/>
                </mxCell>
                <mxCell id="81" value="" style="edgeStyle=none;html=1;" parent="2" source="45" target="82" edge="1">
                    <mxGeometry relative="1" as="geometry">
                        <mxPoint x="-3970.666666666667" y="1090" as="sourcePoint"/>
                        <Array as="points">
                            <mxPoint x="909.9999999999997" y="610"/>
                        </Array>
                    </mxGeometry>
                </mxCell>
                <mxCell id="82" value="&lt;span style=&quot;font-size: 14px&quot;&gt;&lt;b&gt;ClosedRequests&lt;br&gt;&lt;/b&gt;&lt;/span&gt;" style="whiteSpace=wrap;html=1;" parent="2" vertex="1">
                    <mxGeometry x="1018.4" y="670" width="120" height="40" as="geometry"/>
                </mxCell>
                <mxCell id="83" value="" style="edgeStyle=none;html=1;" edge="1" target="84" source="72" parent="2">
                    <mxGeometry relative="1" as="geometry">
                        <mxPoint x="-3441.8888888888887" y="1090" as="sourcePoint"/>
                    </mxGeometry>
                </mxCell>
                <mxCell id="84" value="&lt;span style=&quot;font-size: 14px&quot;&gt;&lt;b&gt;BasicInformation&lt;br&gt;&lt;/b&gt;&lt;/span&gt;" style="whiteSpace=wrap;html=1;" vertex="1" parent="2">
                    <mxGeometry x="102.69999999999999" y="760" width="140" height="40" as="geometry"/>
                </mxCell>
                <mxCell id="85" value="" style="edgeStyle=none;html=1;" edge="1" target="86" source="72" parent="2">
                    <mxGeometry relative="1" as="geometry">
                        <mxPoint x="-3447.328888888889" y="1090" as="sourcePoint"/>
                    </mxGeometry>
                </mxCell>
                <mxCell id="86" value="&lt;span style=&quot;font-size: 14px&quot;&gt;&lt;b&gt;Checklist&lt;br&gt;&lt;/b&gt;&lt;/span&gt;" style="whiteSpace=wrap;html=1;" vertex="1" parent="2">
                    <mxGeometry x="282.7" y="760" width="110" height="40" as="geometry"/>
                </mxCell>
                <mxCell id="87" value="" style="edgeStyle=none;html=1;" edge="1" target="88" source="72" parent="2">
                    <mxGeometry relative="1" as="geometry">
                        <mxPoint x="-2740.8888888888887" y="1090" as="sourcePoint"/>
                    </mxGeometry>
                </mxCell>
                <mxCell id="88" value="&lt;span style=&quot;font-size: 14px&quot;&gt;&lt;b&gt;GenerateDocument&lt;br&gt;&lt;/b&gt;&lt;/span&gt;" style="whiteSpace=wrap;html=1;" vertex="1" parent="2">
                    <mxGeometry x="432.7" y="760" width="153" height="40" as="geometry"/>
                </mxCell>
                <mxCell id="89" value="" style="edgeStyle=none;html=1;" edge="1" target="90" source="72" parent="2">
                    <mxGeometry relative="1" as="geometry">
                        <mxPoint x="-1112.488888888889" y="1090" as="sourcePoint"/>
                    </mxGeometry>
                </mxCell>
                <mxCell id="90" value="&lt;span style=&quot;font-size: 14px&quot;&gt;&lt;b&gt;Finish&lt;br&gt;&lt;/b&gt;&lt;/span&gt;" style="whiteSpace=wrap;html=1;" vertex="1" parent="2">
                    <mxGeometry x="625.6999999999999" y="760" width="110" height="40" as="geometry"/>
                </mxCell>
                <mxCell id="91" value="" style="edgeStyle=none;html=1;" edge="1" target="92" source="72" parent="2">
                    <mxGeometry relative="1" as="geometry">
                        <mxPoint x="-211.56888888888943" y="1090" as="sourcePoint"/>
                    </mxGeometry>
                </mxCell>
                <mxCell id="92" value="&lt;span style=&quot;font-size: 14px&quot;&gt;&lt;b&gt;FileModal&lt;br&gt;&lt;/b&gt;&lt;/span&gt;" style="whiteSpace=wrap;html=1;" vertex="1" parent="2">
                    <mxGeometry x="775.6999999999999" y="760" width="110" height="40" as="geometry"/>
                </mxCell>
                <mxCell id="93" value="" style="edgeStyle=none;html=1;" edge="1" target="94" source="88" parent="2">
                    <mxGeometry relative="1" as="geometry">
                        <mxPoint x="707.5333333333326" y="1180" as="sourcePoint"/>
                    </mxGeometry>
                </mxCell>
                <mxCell id="94" value="&lt;span style=&quot;font-size: 14px&quot;&gt;&lt;b&gt;AttachmentModal&lt;br&gt;&lt;/b&gt;&lt;/span&gt;" style="whiteSpace=wrap;html=1;" vertex="1" parent="2">
                    <mxGeometry x="432.7" y="850" width="153" height="40" as="geometry"/>
                </mxCell>
            </root>
        </mxGraphModel>
    </diagram>
</mxfile>